<?xml version="1.0" standalone="no"?>
<!DOCTYPE svg PUBLIC "-//W3C//DTD SVG 20010904//EN"
 "http://www.w3.org/TR/2001/REC-SVG-20010904/DTD/svg10.dtd">
<svg version="1.0" xmlns="http://www.w3.org/2000/svg"
 width="700.000000pt" height="700.000000pt" viewBox="0 0 700.000000 700.000000"
 preserveAspectRatio="xMidYMid meet">
<metadata>
Created by potrace 1.11, written by Peter Selinger 2001-2013
</metadata>
<g transform="translate(0.000000,700.000000) scale(0.100000,-0.100000)"
fill="#000000" stroke="none">
<path d="M3427 5824 c-1 -1 -49 -5 -107 -8 -110 -7 -132 -10 -202 -21 -54 -9
-62 -11 -123 -25 -27 -6 -57 -13 -65 -15 -139 -29 -342 -105 -510 -193 -592
-307 -1033 -868 -1191 -1514 -22 -92 -24 -103 -46 -243 -30 -196 -20 -553 22
-755 2 -14 10 -50 16 -80 6 -30 14 -62 17 -70 3 -8 6 -19 7 -25 8 -34 58 -182
85 -250 64 -163 218 -433 317 -555 416 -517 960 -821 1600 -894 111 -13 413
-14 493 -2 25 4 56 9 70 11 93 13 126 19 215 40 195 46 342 100 521 191 108
54 328 191 365 226 8 7 37 31 64 52 120 94 320 311 426 461 309 438 459 990
415 1530 -74 906 -675 1690 -1534 2001 -187 68 -394 113 -588 129 -76 7 -263
13 -267 9z m265 -449 c363 -35 719 -186 1023 -435 68 -56 225 -220 283 -297
178 -235 312 -535 357 -798 4 -22 8 -47 10 -55 7 -33 18 -168 19 -225 l1 -60
-949 0 -950 0 -1 930 c0 512 1 935 3 941 3 12 77 11 204 -1z"/>
</g>
</svg>
