<svg xmlns="http://www.w3.org/2000/svg" width="32" height="32" viewBox="0 0 32 32">
  <style>
    path {
      fill: #2F3437;
    }
    @media (prefers-color-scheme: dark) {
      path {
        fill: #ebebeb;
      }
    }
  </style>
  <path fill-rule="evenodd" d="M16 0C2.824 0 0 2.824 0 16s2.824 16 16 16 16-2.824 16-16S29.176 0 16 0zm-5.653 9.067c-.59 0-1.067.431-1.067.963v12.046c0 .532.478.964 1.067.964h2.666c.59 0 1.067-.431 1.067-.964V10.03c0-.532-.478-.963-1.067-.963h-2.666zm8.533 0c-.59 0-1.067.431-1.067.963v12.046c0 .532.478.964 1.067.964h2.667c.589 0 1.066-.431 1.066-.964V10.03c0-.532-.477-.963-1.066-.963H18.88z" clip-rule="evenodd" />
</svg>