<svg xmlns="http://www.w3.org/2000/svg" width="32" height="32" fill="none" viewBox="0 0 32 32">
  <style>    
    @media (prefers-color-scheme: dark) {
      path {
        fill: #ebebeb;
      }
    }
  </style>
  <path fill="#2F3437" fill-rule="evenodd" d="M13.867 0C6.208 0 0 6.208 0 13.867v4.266C0 25.792 6.208 32 13.867 32h4.266C25.792 32 32 25.792 32 18.133v-4.266C32 6.208 25.792 0 18.133 0h-4.266zm-3.52 8.96c-.59 0-1.067.431-1.067.964V21.97c0 .532.478.963 1.067.963h2.666c.59 0 1.067-.431 1.067-.963V9.924c0-.533-.478-.964-1.067-.964h-2.666zm8.533 0c-.59 0-1.067.431-1.067.964V21.97c0 .532.478.963 1.067.963h2.667c.589 0 1.066-.431 1.066-.963V9.924c0-.533-.477-.964-1.066-.964H18.88z" clip-rule="evenodd" />
</svg>