<svg xmlns="http://www.w3.org/2000/svg" width="33" height="33" fill="none" viewBox="0 0 33 33">
  <path fill="#fff" d="M11.177 32.107a4.28 4.28 0 01-3.027-1.254l-6.896-6.896A4.28 4.28 0 010 20.93v-9.753A4.28 4.28 0 011.254 8.15L8.15 1.254A4.28 4.28 0 0111.177 0h9.753a4.28 4.28 0 013.027 1.254l6.896 6.896a4.28 4.28 0 011.254 3.027v9.753a4.28 4.28 0 01-1.254 3.027l-6.896 6.896a4.28 4.28 0 01-3.027 1.254h-9.753z"/>
  <path fill="#000" d="M9.311 9.957c0-.534.48-.967 1.07-.967h2.676c.59 0 1.07.433 1.07.967v12.086c0 .534-.48.967-1.07.967H10.38c-.59 0-1.07-.433-1.07-.967V9.957zM17.873 9.957c0-.534.48-.967 1.07-.967h2.676c.59 0 1.07.433 1.07.967v12.086c0 .534-.48.967-1.07.967h-2.676c-.59 0-1.07-.433-1.07-.967V9.957z"/>
</svg>
