<svg xmlns="http://www.w3.org/2000/svg" width="33" height="33" fill="none" viewBox="0 0 33 33">
  <path fill="#fff" d="M11.177 32.107a4.28 4.28 0 01-3.027-1.254l-6.896-6.896A4.28 4.28 0 010 20.93v-9.753A4.28 4.28 0 011.254 8.15L8.15 1.254A4.28 4.28 0 0111.177 0h9.753a4.28 4.28 0 013.027 1.254l6.896 6.896a4.28 4.28 0 011.254 3.027v9.753a4.28 4.28 0 01-1.254 3.027l-6.896 6.896a4.28 4.28 0 01-3.027 1.254h-9.753z"/>
  <path fill="#000" d="M12.736 9.1c0-.954 1.153-1.432 1.827-.758l6.876 6.876a1.07 1.07 0 010 1.514l-6.876 6.876c-.674.674-1.827.196-1.827-.757V9.099z"/>
</svg>
